# xmcd CD database file
#
# Track frame offsets:
#	150
#	22250
#	47051
#	71532
#	89545
#	114590
#	137372
#	160619
#	189966
#	205364
#	231659
#
# Disc length: 3372 seconds
#
# Revision: 0
# Processed by: cddbd v1.5.2PL0 Copyright (c) Steve Scherf et al.
# Submitted via: CDex 1.70beta2
#
DISCID=980d2a0b
DTITLE=Heiner Franz, Louis Stewart, John Goldsby, Oliver Strauch - I Wished On The Moon
DYEAR=1999
DGENRE=Jazz
TTITLE0=I Wished On The Moon
TTITLE1=Witchcraft
TTITLE2=Invitation
TTITLE3=It Could Happen To You
TTITLE4=O Grande Amor
TTITLE5=I' ll Take Romance
TTITLE6=Speak Low
TTITLE7=If I Had You
TTITLE8=Israel
TTITLE9=Jeannine
TTITLE10=I Fall In Love Too Easily
EXTD=YEAR: 1999
EXTT0=
EXTT1=
EXTT2=
EXTT3=
EXTT4=
EXTT5=
EXTT6=
EXTT7=
EXTT8=
EXTT9=
EXTT10=
PLAYORDER=
